<svg width="186" height="48" viewBox="0 0 186 48" fill="none" xmlns="http://www.w3.org/2000/svg">
<path d="M7.88 38.48C6.92 38.48 6.02667 38.3333 5.2 38.04C4.4 37.7733 3.68 37.4133 3.04 36.96C2.4 36.48 1.85333 35.9467 1.4 35.36C0.946667 34.7467 0.573333 34.12 0.28 33.48L2.84 32C3.4 32.9867 4.08 33.8 4.88 34.44C5.70667 35.08 6.72 35.4 7.92 35.4C8.88 35.4 9.81333 35.1733 10.72 34.72C11.6533 34.2667 12.4133 33.5067 13 32.44C13.5867 31.3733 13.88 29.9733 13.88 28.24V10H17.24V29.56C17.24 31.0267 16.9733 32.32 16.44 33.44C15.9333 34.56 15.2267 35.4933 14.32 36.24C13.44 36.9867 12.44 37.5467 11.32 37.92C10.2 38.2933 9.05333 38.48 7.88 38.48ZM32.2259 38.48C30.2793 38.48 28.5459 38.04 27.0259 37.16C25.5326 36.2533 24.3593 35.0133 23.5059 33.44C22.6526 31.8667 22.2259 30.0533 22.2259 28C22.2259 25.9467 22.6393 24.1333 23.4659 22.56C24.3193 20.9867 25.4926 19.76 26.9859 18.88C28.5059 17.9733 30.2259 17.52 32.1459 17.52C34.1193 17.52 35.8526 17.9733 37.3459 18.88C38.8659 19.76 40.0393 20.9867 40.8659 22.56C41.7193 24.1333 42.1459 25.9467 42.1459 28C42.1459 30.0533 41.7193 31.8667 40.8659 33.44C40.0393 35.0133 38.8793 36.2533 37.3859 37.16C35.8926 38.04 34.1726 38.48 32.2259 38.48ZM32.2259 35.52C33.5593 35.52 34.7193 35.2 35.7059 34.56C36.6926 33.92 37.4659 33.04 38.0259 31.92C38.6126 30.8 38.9059 29.4933 38.9059 28C38.9059 26.5067 38.6126 25.2 38.0259 24.08C37.4659 22.96 36.6793 22.08 35.6659 21.44C34.6526 20.8 33.4793 20.48 32.1459 20.48C30.8393 20.48 29.6793 20.8 28.6659 21.44C27.6793 22.08 26.8926 22.96 26.3059 24.08C25.7459 25.2 25.4659 26.5067 25.4659 28C25.4659 29.4667 25.7459 30.7733 26.3059 31.92C26.8926 33.04 27.6926 33.92 28.7059 34.56C29.7459 35.2 30.9193 35.52 32.2259 35.52ZM46.5891 38V10H49.7891V34.28L49.6291 38H46.5891ZM56.5491 38.48C54.8691 38.48 53.3891 38.04 52.1091 37.16C50.8557 36.28 49.8824 35.0533 49.1891 33.48C48.4957 31.88 48.1491 30.0533 48.1491 28C48.1491 25.92 48.4957 24.0933 49.1891 22.52C49.8824 20.9467 50.8557 19.72 52.1091 18.84C53.3891 17.96 54.8691 17.52 56.5491 17.52C58.3357 17.52 59.9091 17.96 61.2691 18.84C62.6291 19.72 63.6824 20.9467 64.4291 22.52C65.2024 24.0933 65.5891 25.92 65.5891 28C65.5891 30.0533 65.2024 31.88 64.4291 33.48C63.6824 35.0533 62.6291 36.28 61.2691 37.16C59.9091 38.04 58.3357 38.48 56.5491 38.48ZM55.8291 35.56C57.0824 35.56 58.1891 35.24 59.1491 34.6C60.1357 33.96 60.9091 33.0667 61.4691 31.92C62.0557 30.7733 62.3491 29.4667 62.3491 28C62.3491 26.5333 62.0691 25.2267 61.5091 24.08C60.9757 22.9333 60.2157 22.04 59.2291 21.4C58.2424 20.76 57.1224 20.44 55.8691 20.44C54.6957 20.44 53.6424 20.76 52.7091 21.4C51.8024 22.04 51.0824 22.9333 50.5491 24.08C50.0424 25.2267 49.7891 26.5333 49.7891 28C49.7891 29.4667 50.0424 30.7733 50.5491 31.92C51.0824 33.0667 51.8024 33.96 52.7091 34.6C53.6157 35.24 54.6557 35.56 55.8291 35.56ZM103.069 38L111.709 10H115.109L106.429 38H103.069ZM86.0294 38L77.4694 10H80.8694L89.3494 38H86.0294ZM86.3894 38L94.6294 10H97.8694L89.6294 38H86.3894ZM102.789 38L94.7494 10H97.9894L106.149 38H102.789ZM125.507 38.48C123.561 38.48 121.827 38.04 120.307 37.16C118.814 36.2533 117.641 35.0133 116.787 33.44C115.934 31.8667 115.507 30.0533 115.507 28C115.507 25.9467 115.921 24.1333 116.747 22.56C117.601 20.9867 118.774 19.76 120.267 18.88C121.787 17.9733 123.507 17.52 125.427 17.52C127.401 17.52 129.134 17.9733 130.627 18.88C132.147 19.76 133.321 20.9867 134.147 22.56C135.001 24.1333 135.427 25.9467 135.427 28C135.427 30.0533 135.001 31.8667 134.147 33.44C133.321 35.0133 132.161 36.2533 130.667 37.16C129.174 38.04 127.454 38.48 125.507 38.48ZM125.507 35.52C126.841 35.52 128.001 35.2 128.987 34.56C129.974 33.92 130.747 33.04 131.307 31.92C131.894 30.8 132.187 29.4933 132.187 28C132.187 26.5067 131.894 25.2 131.307 24.08C130.747 22.96 129.961 22.08 128.947 21.44C127.934 20.8 126.761 20.48 125.427 20.48C124.121 20.48 122.961 20.8 121.947 21.44C120.961 22.08 120.174 22.96 119.587 24.08C119.027 25.2 118.747 26.5067 118.747 28C118.747 29.4667 119.027 30.7733 119.587 31.92C120.174 33.04 120.974 33.92 121.987 34.56C123.027 35.2 124.201 35.52 125.507 35.52ZM141.63 27.16C141.63 25 142.044 23.2533 142.87 21.92C143.697 20.56 144.75 19.56 146.03 18.92C147.337 18.2533 148.71 17.92 150.15 17.92V20.92C148.977 20.92 147.844 21.12 146.75 21.52C145.684 21.8933 144.804 22.52 144.11 23.4C143.417 24.28 143.07 25.48 143.07 27L141.63 27.16ZM139.87 38V18H143.07V38H139.87Z" fill="white"/>
<path d="M165.8 38V10H169V38H165.8ZM179.88 38V27.76H183.08V38H179.88ZM179.88 27.76C179.88 25.7867 179.64 24.28 179.16 23.24C178.707 22.2 178.08 21.4933 177.28 21.12C176.48 20.72 175.573 20.52 174.56 20.52C172.8 20.52 171.427 21.1467 170.44 22.4C169.48 23.6267 169 25.3733 169 27.64H167.44C167.44 25.5333 167.747 23.72 168.36 22.2C169 20.68 169.907 19.52 171.08 18.72C172.253 17.92 173.667 17.52 175.32 17.52C176.867 17.52 178.227 17.84 179.4 18.48C180.573 19.0933 181.48 20.08 182.12 21.44C182.787 22.8 183.107 24.5867 183.08 26.8V27.76H179.88Z" fill="white"/>
<path d="M157 14L162 10H152L157 14Z" fill="#FF0000"/>
<path fill-rule="evenodd" clip-rule="evenodd" d="M156.33 11L154.45 35.9078H159.564L157.684 11H156.33Z" fill="#FF0000"/>
<path d="M157.007 38L159.547 35.9077H154.467L157.007 38Z" fill="#FF0000"/>
</svg>
